<svg width="256" height="256" viewBox="0 0 256 256" fill="none" xmlns="http://www.w3.org/2000/svg">
<g id="gk">
<path id="bg" d="M174.23 0.015625L174.495 0.0244141L174.956 0.0410156L175.417 0.0732422C185.845 0.807274 195.168 6.97102 199.904 16.3721L199.905 16.374C204.922 26.3337 203.948 38.2559 197.397 47.2676L197.398 47.2686L183.174 66.8828C182.708 67.5252 182.216 68.1432 181.702 68.7383L226.239 68.7402C242.711 68.7406 256 82.1028 256 98.5068V117.296C256 123.454 254.09 129.462 250.533 134.49L250.184 134.974L169.795 243.91L169.568 244.216L169.196 244.691L168.956 244.997L168.708 245.295C163.08 252.047 154.72 256 145.85 256H122.832L122.38 255.984L122.115 255.975L121.654 255.959L121.194 255.927C110.766 255.193 101.442 249.029 96.7061 239.628L96.7051 239.626C91.6567 229.603 92.674 217.59 99.3379 208.559L99.3389 208.558L115.054 187.262L29.7607 187.26C13.2892 187.259 0 173.897 0 157.493V138.704C0 132.347 2.03541 126.15 5.81641 121.026L86.2051 12.0898L86.4316 11.7842L86.8037 11.3086L87.043 11.0039L87.292 10.7051C92.9202 3.9531 101.28 0 110.15 0H173.778L174.23 0.015625Z" fill="#FFD500"/>
<g id="strokes">
<path id="stroke_down" d="M123.02 229.991L123.284 230H145.85C146.968 230 148.024 229.501 148.736 228.647L148.874 228.472L229.264 119.535C229.742 118.887 230 118.102 230 117.296L230 98.5065C230 96.4263 228.316 94.7401 226.239 94.74L108.24 94.7373C107.035 94.7373 105.903 95.316 105.196 96.2931L91.5918 115.086C90.7623 116.232 90.644 117.747 91.2861 119.008C91.9281 120.269 93.2224 121.062 94.6356 121.063L192.232 121.099C193.872 121.1 194.814 122.967 193.84 124.287L120.26 223.995C119.416 225.139 119.287 226.661 119.926 227.93C120.526 229.12 121.705 229.898 123.02 229.991Z" fill="black" stroke="black" stroke-width="5" stroke-linejoin="round"/>
<path id="stroke_up" d="M121.666 52.4445H160.508C161.148 52.4445 161.75 52.1374 162.127 51.6186L176.351 32.0046C177.195 30.8612 177.324 29.3393 176.685 28.0699C176.085 26.8798 174.906 26.1017 173.591 26.0092L173.327 26H110.15C109.032 26 107.976 26.4985 107.264 27.3526L107.126 27.5283L26.7364 136.465C26.2581 137.113 26 137.898 26 138.704V157.494C26 159.574 27.6838 161.26 29.7609 161.26L147.759 161.263C148.965 161.263 150.097 160.684 150.804 159.707L164.408 140.914C165.238 139.768 165.356 138.253 164.714 136.992C164.072 135.731 162.778 134.938 161.364 134.937L63.7684 134.901C62.1278 134.9 61.1857 133.033 62.1599 131.713L120.057 53.2569C120.434 52.746 121.031 52.4445 121.666 52.4445Z" fill="black" stroke="black" stroke-width="5" stroke-linejoin="round"/>
</g>
</g>
</svg>
